<svg width="40" height="40" viewBox="0 0 40 40" fill="none" xmlns="http://www.w3.org/2000/svg">
<g clip-path="url(#clip0_2_102)">
<path fill-rule="evenodd" clip-rule="evenodd" d="M17.9288 38.75H8.75C6.67875 38.75 5 37.0712 5 35V24.5863C5 22.7738 6.29625 21.2213 8.07875 20.8975C10.7212 20.4163 15.2775 19.5875 17.855 19.12C19.2737 18.8612 20.7263 18.8612 22.145 19.12C24.7225 19.5875 29.2788 20.4163 31.9213 20.8975C33.7038 21.2213 35 22.7738 35 24.5863C35 27.3125 35 32.0825 35 35C35 37.0712 33.3212 38.75 31.25 38.75H17.9288ZM29.785 23.05L29.79 23.0563C30.0088 23.3838 30.06 23.795 29.9287 24.1662L29.0462 26.6662C28.9312 26.9925 28.685 27.2575 28.3675 27.3963L26.7075 28.12L27.3675 29.4412C27.5525 29.81 27.5425 30.2462 27.3425 30.6075L24.2075 36.25H31.25C31.94 36.25 32.5 35.69 32.5 35C32.5 32.0825 32.5 27.3125 32.5 24.5863C32.5 23.9825 32.0675 23.465 31.4738 23.3562L29.785 23.05ZM26.3663 22.4275L21.6975 21.5788C20.575 21.375 19.425 21.375 18.3025 21.5788L13.6337 22.4275L12.6363 23.9238L13.13 25.3213L15.5 26.3537C15.8138 26.4912 16.0575 26.7512 16.175 27.0737C16.2925 27.3962 16.2712 27.7525 16.1175 28.0588L15.1625 29.9688L18.6525 36.25H21.3475L24.8375 29.9688L23.8825 28.0588C23.7288 27.7525 23.7075 27.3962 23.825 27.0737C23.9425 26.7512 24.1862 26.4912 24.5 26.3537L26.87 25.3213L27.3638 23.9238L26.3663 22.4275ZM10.215 23.05L8.52625 23.3562C7.9325 23.465 7.5 23.9825 7.5 24.5863V35C7.5 35.69 8.06 36.25 8.75 36.25H15.7925L12.6575 30.6075C12.4575 30.2462 12.4475 29.81 12.6325 29.4412L13.2925 28.12L11.6325 27.3963C11.315 27.2575 11.0688 26.9925 10.9538 26.6662L10.0712 24.1662C9.94 23.795 9.99125 23.3838 10.21 23.0563L10.215 23.05ZM28.75 30V32.5C28.75 33.19 29.31 33.75 30 33.75C30.69 33.75 31.25 33.19 31.25 32.5V30C31.25 29.31 30.69 28.75 30 28.75C29.31 28.75 28.75 29.31 28.75 30ZM20 1.25C15.5163 1.25 11.875 4.89125 11.875 9.375C11.875 13.8587 15.5163 17.5 20 17.5C24.4837 17.5 28.125 13.8587 28.125 9.375C28.125 4.89125 24.4837 1.25 20 1.25ZM20 3.75C23.105 3.75 25.625 6.27 25.625 9.375C25.625 12.48 23.105 15 20 15C16.895 15 14.375 12.48 14.375 9.375C14.375 6.27 16.895 3.75 20 3.75Z" fill="white"/>
</g>
<defs>
<clipPath id="clip0_2_102">
<rect width="40" height="40" fill="white"/>
</clipPath>
</defs>
</svg>
