<svg width="40" height="40" viewBox="0 0 40 40" fill="none" xmlns="http://www.w3.org/2000/svg">
<g clip-path="url(#clip0_2_99)">
<path fill-rule="evenodd" clip-rule="evenodd" d="M5 35C5 37.0712 6.67875 38.75 8.75 38.75H31.25C33.3212 38.75 35 37.0712 35 35C35 32.0825 35 27.3125 35 24.5863C35 22.7738 33.7038 21.2213 31.9213 20.8975C29.2788 20.4163 24.7225 19.5875 22.145 19.12C20.7263 18.8612 19.2737 18.8612 17.855 19.12C15.2775 19.5875 10.7212 20.4163 8.07875 20.8975C6.29625 21.2213 5 22.7738 5 24.5863V35ZM22.885 21.795L24.7612 28.9288C25.0075 29.865 24.6775 30.8588 23.92 31.4638C23.28 31.9738 22.2713 32.7788 21.5713 33.3388C20.6525 34.0713 19.3475 34.0713 18.4287 33.3388C17.7287 32.7788 16.72 31.9738 16.08 31.4638C15.3225 30.8588 14.9925 29.865 15.2388 28.9288L17.115 21.795L8.52625 23.3562C7.9325 23.465 7.5 23.9825 7.5 24.5863V35C7.5 35.69 8.06 36.25 8.75 36.25C13.98 36.25 26.02 36.25 31.25 36.25C31.94 36.25 32.5 35.69 32.5 35C32.5 32.0825 32.5 27.3125 32.5 24.5863C32.5 23.9825 32.0675 23.465 31.4738 23.3562L22.885 21.795ZM20.2038 21.4288C20.0675 21.425 19.9325 21.425 19.7962 21.4288L17.6663 29.5312L19.9887 31.3837C19.995 31.39 20.005 31.39 20.0113 31.3837L22.3337 29.5312L20.2038 21.4288ZM20 1.25C15.5163 1.25 11.875 4.89125 11.875 9.375C11.875 13.8587 15.5163 17.5 20 17.5C24.4837 17.5 28.125 13.8587 28.125 9.375C28.125 4.89125 24.4837 1.25 20 1.25ZM20 3.75C23.105 3.75 25.625 6.27 25.625 9.375C25.625 12.48 23.105 15 20 15C16.895 15 14.375 12.48 14.375 9.375C14.375 6.27 16.895 3.75 20 3.75Z" fill="white"/>
</g>
<defs>
<clipPath id="clip0_2_99">
<rect width="40" height="40" fill="white"/>
</clipPath>
</defs>
</svg>
