<!DOCTYPE svg PUBLIC "-//W3C//DTD SVG 1.1//EN" "http://www.w3.org/Graphics/SVG/1.1/DTD/svg11.dtd">
<!-- Uploaded to: SVG Repo, www.svgrepo.com, Transformed by: SVG Repo Mixer Tools -->
<svg width="256px" height="256px" viewBox="0 0 24.00 24.00" fill="none" xmlns="http://www.w3.org/2000/svg" stroke="#000000" stroke-width="0.00024000000000000003">
<g id="SVGRepo_bgCarrier" stroke-width="0"/>
<g id="SVGRepo_tracerCarrier" stroke-linecap="round" stroke-linejoin="round"/>
<g id="SVGRepo_iconCarrier"> <path fill-rule="evenodd" clip-rule="evenodd" d="M2 12C2 6.47715 6.47715 2 12 2C17.5228 2 22 6.47715 22 12C22 17.5228 17.5228 22 12 22C6.47715 22 2 17.5228 2 12ZM12 6C10.3431 6 9 7.34315 9 9C9 10.6569 10.3431 12 12 12C13.6569 12 15 10.6569 15 9C15 7.34315 13.6569 6 12 6ZM17.8946 17.4473L17.0002 17C17.8946 17.4473 17.8939 17.4487 17.8939 17.4487L17.8932 17.4502L17.8916 17.4532L17.8882 17.46L17.88 17.4756C17.8739 17.4871 17.8666 17.5004 17.858 17.5155C17.8409 17.5458 17.8186 17.5832 17.7906 17.6267C17.7346 17.7138 17.6558 17.8254 17.5497 17.9527C17.3369 18.208 17.0163 18.5245 16.5549 18.8321C15.6228 19.4534 14.1751 20 12.0001 20C8.31494 20 6.76549 18.4304 6.26653 17.7115C5.96463 17.2765 5.99806 16.7683 6.18066 16.4031C6.91705 14.9303 8.42234 14 10.069 14H13.7642C15.5134 14 17.1124 14.9883 17.8947 16.5528C18.0354 16.8343 18.0354 17.1657 17.8946 17.4473Z" fill="#152C70"/> </g>
</svg>